<svg width="66" height="56" viewBox="0 0 66 56" fill="none" xmlns="http://www.w3.org/2000/svg">
<path d="M33 6C47.061 6 58.75 15.702 58.75 28C58.75 40.298 47.061 50 33 50C18.939 50 7.25 40.298 7.25 28C7.25 15.702 18.939 6 33 6Z" stroke="white" stroke-width="2" stroke-linecap="round"/>
<path d="M24.75 20.75C26.3666 20.75 27.7498 21.8695 27.75 23.333C27.75 24.7967 26.3668 25.917 24.75 25.917C23.1332 25.917 21.75 24.7967 21.75 23.333C21.7502 21.8695 23.1334 20.75 24.75 20.75Z" fill="white" stroke="#33363F" stroke-width="0.5" stroke-linecap="round"/>
<path d="M41.25 20.75C42.8666 20.75 44.2498 21.8695 44.25 23.333C44.25 24.7967 42.8668 25.917 41.25 25.917C39.6332 25.917 38.25 24.7967 38.25 23.333C38.2502 21.8695 39.6334 20.75 41.25 20.75Z" fill="white" stroke="#33363F" stroke-width="0.5" stroke-linecap="round"/>
<path d="M43.2805 35C43.565 35 43.7072 35 43.7822 35.1003C43.8572 35.2006 43.8191 35.3298 43.7429 35.5882C42.6614 39.2549 38.2637 41.9999 33.0004 42C27.7369 42 23.3384 39.255 22.2569 35.5882C22.1806 35.3298 22.1425 35.2006 22.2175 35.1003C22.2925 35 22.4347 35 22.7192 35H43.2805Z" fill="white"/>
</svg>
