<svg width="40" height="40" viewBox="0 0 40 40" fill="none" xmlns="http://www.w3.org/2000/svg">
<path d="M5.26388 23.2177C4.07554 21.2371 4.07554 18.7629 5.26388 16.7823C5.62651 16.1779 6.22727 15.7545 6.91841 15.6163L9.74013 15.052C9.90824 15.0183 10.0598 14.9282 10.1695 14.7965L15.5041 8.39498C16.6867 6.97592 17.2779 6.26638 17.8056 6.45742C18.3333 6.64846 18.3333 7.57207 18.3333 9.41928L18.3333 30.5807C18.3333 32.4279 18.3333 33.3515 17.8056 33.5426C17.2779 33.7336 16.6867 33.0241 15.5041 31.605L10.1695 25.2035C10.0598 25.0718 9.90824 24.9817 9.74013 24.948L6.91841 24.3837C6.22728 24.2455 5.62651 23.8221 5.26388 23.2177Z" stroke="white" stroke-width="2"/>
<path d="M25.8926 14.1075C27.4474 15.6623 28.3247 17.7685 28.3334 19.9673C28.342 22.166 27.4813 24.2791 25.9389 25.846" stroke="white" stroke-width="2" stroke-linecap="round"/>
<path d="M32.7614 10.572C35.249 13.0596 36.6527 16.4296 36.6666 19.9476C36.6804 23.4656 35.3034 26.8465 32.8354 29.3536" stroke="white" stroke-width="2" stroke-linecap="round"/>
</svg>
